# xmcd
# Track frame offsets:
# 150
# 16566
# 31373
# 47720
# 65895
# 84579
# 97744
# 115711
# 137172
# 159957
#
# Disc length: 2340 seconds
# Revision: 0
# Processed by: cddbd v1.5.2PL0 Copyright (c) Steve Scherf et al.
# Submitted via: VisiTrax 2.10.3.257 - For more info visit www.synapsa.com
#
DISCID=7209220a
DTITLE=Kelly Vohnn - A New Beginning
DYEAR=1900
DGENRE=
TTITLE0=Her Momma's Eyes (And Her Daddy's Gun)
TTITLE1=Real Man
TTITLE2=The Other Woman
TTITLE3=Waitin' Tables
TTITLE4=Handful of Memories
TTITLE5=Love Will
TTITLE6=Maybe There's Enough Love
TTITLE7=Can't Stop A Young Heart
TTITLE8=A New Beginning
TTITLE9=Sweet Dreams
EXTD=
EXTT0=
EXTT1=
EXTT2=
EXTT3=
EXTT4=
EXTT5=
EXTT6=
EXTT7=
EXTT8=
EXTT9=
PLAYORDER=
